<svg xmlns="http://www.w3.org/2000/svg" xmlns:xlink="http://www.w3.org/1999/xlink" width="1080" zoomAndPan="magnify" viewBox="0 0 810 1012.49997" height="1350" preserveAspectRatio="xMidYMid meet" version="1.0"><path fill="#ffffff" d="M 162.539062 441.636719 C 147.21875 444.265625 133.984375 451.222656 122.488281 462.695312 C 106.921875 478.226562 98.234375 496.132812 96.59375 516.066406 C 96.230469 520.488281 96.199219 520.597656 96.140625 517.636719 C 95.914062 506.433594 92.128906 493.191406 86.570312 484.136719 C 83.539062 479.199219 75.722656 471.515625 70.789062 468.621094 C 64.03125 464.65625 56.011719 461.988281 49.253906 461.457031 L 45.738281 461.179688 L 45.132812 464.832031 C 44.273438 470.027344 44.363281 480.105469 45.3125 485.070312 C 48.761719 503.078125 61.746094 518.316406 81.949219 528.066406 C 84.496094 529.296875 86.867188 530.304688 87.21875 530.308594 C 88.140625 530.316406 87.644531 527.785156 85.363281 520.796875 C 83.109375 513.910156 78.296875 503.988281 74.324219 498.046875 C 70.398438 492.175781 64.605469 485.40625 59.988281 481.296875 L 56.105469 477.835938 L 58.0625 478.152344 C 60.574219 478.550781 65.03125 480.804688 68.320312 483.332031 C 76.117188 489.328125 86.421875 503.25 93.570312 517.449219 C 95.152344 520.59375 96.28125 522.332031 96.652344 522.1875 C 96.972656 522.066406 97.945312 520.144531 98.8125 517.917969 C 101.375 511.355469 107.882812 498.835938 111.792969 492.945312 C 119.832031 480.847656 127.285156 473.574219 135.859375 469.464844 C 140.257812 467.355469 143.488281 466.710938 148.390625 466.960938 C 155.269531 467.308594 159.023438 470.058594 159.4375 475.050781 C 159.882812 480.421875 157.050781 484.015625 152.089844 484.375 C 150.59375 484.484375 148.839844 484.4375 148.183594 484.273438 C 146.316406 483.804688 143.386719 480.863281 142.785156 478.851562 C 142.164062 476.78125 141.699219 476.679688 139.015625 478.035156 C 128.4375 483.367188 118.273438 496.863281 110.988281 515.261719 C 109.070312 520.109375 105.800781 529.914062 105.800781 530.828125 C 105.800781 532.0625 117.25 529.492188 123.789062 526.796875 C 139.089844 520.480469 151.433594 507.347656 161.195312 487.007812 C 167.53125 473.804688 171.253906 459.066406 171.667969 445.558594 L 171.800781 441.15625 L 169.023438 441.078125 C 167.492188 441.035156 164.574219 441.285156 162.539062 441.636719 M 434.640625 483.101562 L 434.640625 525.28125 L 455.367188 525.109375 C 475.03125 524.949219 476.285156 524.886719 479.800781 523.917969 C 494.464844 519.871094 504.371094 509.398438 507.660156 494.472656 C 508.539062 490.476562 508.648438 481.175781 507.859375 477.285156 C 505.433594 465.304688 498.742188 455.214844 488.6875 448.378906 C 483.460938 444.824219 475.480469 442.246094 467.128906 441.40625 C 464.492188 441.140625 456.101562 440.925781 448.488281 440.925781 L 434.640625 440.925781 Z M 533.757812 483.070312 L 533.757812 525.21875 L 584.703125 525.21875 L 584.703125 519.199219 L 549.503906 519.199219 L 549.503906 484.925781 L 581.925781 484.925781 L 581.925781 478.441406 L 549.503906 478.441406 L 549.503906 447.421875 L 566.757812 447.300781 L 584.007812 447.179688 L 584.007812 441.15625 L 558.882812 441.039062 L 533.757812 440.917969 Z M 606.9375 483.027344 L 606.9375 525.21875 L 622.683594 525.21875 L 622.683594 446.601562 L 625.347656 446.304688 C 628.300781 445.972656 637.800781 446.65625 640.207031 447.371094 C 646.191406 449.152344 650.28125 454.34375 651.402344 461.566406 C 652.710938 470.03125 649.1875 477.058594 641.910156 480.503906 C 638.539062 482.097656 636.074219 482.585938 631.332031 482.597656 C 628.195312 482.605469 627.28125 482.75 627.398438 483.21875 C 627.480469 483.550781 632.625 493.140625 638.832031 504.523438 L 650.117188 525.21875 L 658.914062 525.21875 C 665.761719 525.21875 667.65625 525.09375 667.476562 524.640625 C 667.351562 524.324219 662.335938 515.628906 656.332031 505.324219 C 650.332031 495.015625 645.5 486.5 645.601562 486.398438 C 645.703125 486.296875 647.414062 485.90625 649.402344 485.53125 C 659.746094 483.578125 666.261719 477.445312 667.636719 468.367188 C 669.140625 458.410156 664.105469 448.949219 655.003906 444.640625 C 648.410156 441.519531 646.605469 441.296875 625.578125 441.054688 L 606.9375 440.835938 Z M 689.222656 441.234375 C 689.054688 441.402344 688.914062 460.371094 688.914062 483.382812 L 688.914062 525.21875 L 696.320312 525.21875 L 696.4375 491.398438 L 696.554688 457.582031 L 710.878906 492.210938 C 718.757812 511.257812 725.535156 527.519531 725.945312 528.351562 L 726.6875 529.863281 L 754.914062 456.980469 L 755.03125 491.101562 L 755.152344 525.21875 L 770.898438 525.21875 L 770.777344 483.1875 L 770.660156 441.15625 L 753.832031 440.90625 L 751.078125 447.980469 C 747.328125 457.628906 743.585938 467.28125 739.847656 476.9375 C 735.1875 488.972656 731.253906 498.816406 731.101562 498.8125 C 730.953125 498.804688 725.945312 487.289062 719.980469 473.222656 C 714.011719 459.152344 708.449219 446.128906 707.617188 444.285156 L 706.105469 440.925781 L 697.816406 440.925781 C 693.261719 440.925781 689.394531 441.066406 689.222656 441.234375 M 188.835938 441.96875 C 188.964844 442.285156 196.515625 461.722656 205.621094 485.15625 C 214.726562 508.59375 222.316406 527.921875 222.484375 528.113281 C 222.65625 528.304688 226.632812 518.976562 231.320312 507.386719 C 236.011719 495.796875 239.960938 486.320312 240.097656 486.324219 C 240.234375 486.328125 243.996094 495.796875 248.453125 507.363281 C 252.910156 518.929688 256.703125 528.253906 256.878906 528.078125 C 257.054688 527.90625 264.839844 508.59375 274.179688 485.15625 L 291.402344 441.949219 C 291.589844 441.480469 290.804688 441.378906 287.855469 441.484375 L 284.070312 441.621094 L 273.097656 469.292969 C 267.0625 484.515625 262.003906 496.96875 261.859375 496.96875 C 261.710938 496.96875 257.042969 485.242188 251.484375 470.914062 C 247.890625 461.652344 244.292969 452.386719 240.695312 443.125 L 240.015625 441.390625 L 231.496094 441.390625 C 226.800781 441.390625 222.980469 441.574219 222.980469 441.804688 C 222.980469 442.03125 225.898438 449.707031 229.464844 458.859375 C 233.03125 468.011719 235.949219 475.796875 235.953125 476.160156 C 235.96875 477.585938 227.453125 497.496094 227.097656 496.863281 C 226.902344 496.511719 222.015625 484.144531 216.238281 469.382812 C 210.460938 454.625 205.632812 442.285156 205.507812 441.96875 C 205.339844 441.535156 203.183594 441.390625 196.945312 441.390625 C 190.460938 441.390625 188.660156 441.515625 188.835938 441.96875 M 310.054688 483.304688 L 310.054688 525.21875 L 325.800781 525.21875 L 325.800781 441.390625 L 310.054688 441.390625 Z M 349.882812 444.167969 L 349.882812 446.945312 L 371.191406 446.945312 C 383.355469 446.945312 392.496094 447.125 392.496094 447.359375 C 392.496094 447.585938 389.753906 452.222656 386.398438 457.664062 C 378.457031 470.574219 370.519531 483.480469 362.582031 496.386719 L 344.863281 525.21875 L 415.1875 525.21875 L 415.1875 519.199219 L 391.570312 519.199219 C 378.578125 519.199219 367.949219 519.121094 367.949219 519.027344 C 367.949219 518.933594 378.179688 502.105469 390.6875 481.628906 C 403.195312 461.152344 413.84375 443.722656 414.347656 442.894531 L 415.265625 441.390625 L 349.882812 441.390625 Z M 451.664062 446.78125 L 450.390625 447.007812 L 450.390625 519.082031 L 451.835938 519.371094 C 455 520.003906 465.417969 519.65625 469.691406 518.773438 C 481.570312 516.320312 488.589844 508.453125 491.210938 494.652344 C 492.0625 490.164062 491.90625 478.085938 490.9375 473.578125 C 489.191406 465.460938 485.195312 457.90625 480.46875 453.769531 C 477.332031 451.027344 472.484375 448.648438 467.988281 447.648438 C 464.582031 446.890625 454.171875 446.339844 451.664062 446.78125 M 116.710938 453.996094 C 115.085938 456.320312 116.542969 458.988281 119.4375 458.988281 C 122.117188 458.988281 123.574219 455.492188 121.628906 453.734375 C 120.359375 452.585938 117.597656 452.734375 116.710938 453.996094 M 107.085938 460.636719 C 105.492188 461.503906 104.875 462.652344 104.875 464.765625 C 104.875 467.929688 107.449219 470.042969 110.582031 469.457031 C 112.941406 469.011719 114.371094 467.21875 114.371094 464.703125 C 114.371094 462.933594 114.140625 462.414062 112.855469 461.265625 C 111.152344 459.742188 109.140625 459.523438 107.085938 460.636719 M 97.601562 470.988281 C 95.96875 472.011719 94.683594 474.109375 94.6875 475.753906 C 94.691406 477.460938 96.421875 479.828125 98.21875 480.578125 C 102.5 482.367188 106.6875 478.375 105.195312 473.929688 C 104.125 470.734375 100.34375 469.273438 97.601562 470.988281 M 456.410156 546.371094 C 456.027344 546.519531 455.246094 547.070312 454.671875 547.589844 C 453.464844 548.6875 453.277344 551.34375 454.308594 552.703125 C 454.886719 553.472656 454.789062 553.703125 453.34375 554.972656 C 451.175781 556.875 450.386719 558.546875 450.398438 561.207031 C 450.40625 564.242188 451.90625 566.765625 454.515625 568.144531 C 457.015625 569.460938 459.34375 569.511719 461.722656 568.300781 C 463.328125 567.480469 463.613281 567.457031 464.289062 568.066406 C 465.070312 568.773438 467.988281 569.039062 467.988281 568.402344 C 467.988281 568.207031 467.480469 567.296875 466.859375 566.382812 C 465.882812 564.945312 465.761719 564.363281 465.992188 562.144531 C 466.304688 559.113281 465.914062 557.175781 464.992188 557.175781 C 464.523438 557.175781 464.292969 557.875 464.191406 559.609375 L 464.050781 562.039062 L 461.675781 558.335938 L 459.296875 554.628906 L 460.632812 553.109375 C 462.316406 551.191406 462.425781 548.96875 460.902344 547.539062 C 459.78125 546.488281 457.582031 545.914062 456.410156 546.371094 M 49.921875 547.496094 C 49.121094 547.726562 47.816406 548.652344 47.027344 549.550781 C 45.84375 550.898438 45.589844 551.585938 45.589844 553.425781 C 45.589844 556.226562 46.671875 557.703125 49.921875 559.328125 C 53.320312 561.027344 54.390625 562.140625 54.390625 563.972656 C 54.390625 567.386719 50.382812 568.628906 47.914062 565.984375 C 46.789062 564.78125 46.546875 564.691406 46.042969 565.296875 C 45.570312 565.867188 45.625 566.171875 46.335938 566.960938 C 49.199219 570.121094 54.074219 569.996094 57.171875 566.679688 C 58.132812 565.648438 58.328125 564.980469 58.328125 562.734375 C 58.328125 559.414062 57.40625 558.257812 53.167969 556.253906 C 49.117188 554.339844 48.195312 552.21875 50.433594 549.976562 C 51.984375 548.429688 53.683594 548.523438 55.414062 550.257812 C 57.097656 551.941406 58.664062 551.84375 57.523438 550.125 C 55.957031 547.765625 52.785156 546.667969 49.921875 547.496094 M 136.347656 547.613281 C 127.460938 550.03125 125.542969 562.769531 133.34375 567.589844 C 135.308594 568.804688 136.035156 568.988281 138.9375 568.988281 C 141.765625 568.988281 142.523438 568.808594 143.925781 567.8125 C 146.359375 566.082031 147.738281 564.191406 147.0625 563.515625 C 146.644531 563.097656 146.167969 563.371094 145.03125 564.667969 C 143.125 566.847656 142.027344 567.367188 139.339844 567.367188 C 134.976562 567.367188 132.664062 564.238281 132.664062 558.335938 C 132.664062 552.988281 134.683594 549.75 138.464844 549.039062 C 140.71875 548.617188 142.144531 549.085938 144.160156 550.90625 C 145.402344 552.027344 146.101562 552.367188 146.574219 552.074219 C 147.117188 551.738281 146.941406 551.347656 145.660156 550.027344 C 143.308594 547.601562 139.769531 546.683594 136.347656 547.613281 M 182.558594 557.554688 C 180.335938 563.339844 178.515625 568.226562 178.515625 568.414062 C 178.515625 568.601562 178.90625 568.757812 179.382812 568.757812 C 180.015625 568.757812 180.515625 568.015625 181.265625 565.957031 L 182.285156 563.160156 L 185.777344 563.296875 L 189.265625 563.429688 L 190.285156 565.976562 C 191.273438 568.449219 191.363281 568.527344 193.25 568.667969 C 194.316406 568.746094 195.191406 568.632812 195.191406 568.417969 C 195.191406 568.019531 187 547.445312 186.738281 547.183594 C 186.660156 547.105469 184.777344 551.773438 182.558594 557.554688 M 329.667969 547.496094 C 328.867188 547.726562 327.5625 548.652344 326.773438 549.554688 C 325.589844 550.898438 325.335938 551.585938 325.335938 553.425781 C 325.335938 556.226562 326.417969 557.703125 329.667969 559.328125 C 333.066406 561.027344 334.136719 562.140625 334.136719 563.972656 C 334.136719 567.386719 330.128906 568.628906 327.660156 565.984375 C 326.535156 564.78125 326.289062 564.691406 325.789062 565.296875 C 325.316406 565.867188 325.371094 566.171875 326.082031 566.960938 C 328.945312 570.121094 333.820312 569.996094 336.917969 566.679688 C 337.878906 565.648438 338.074219 564.980469 338.074219 562.734375 C 338.074219 559.414062 337.152344 558.257812 332.914062 556.253906 C 328.863281 554.339844 327.9375 552.21875 330.179688 549.976562 C 331.730469 548.429688 333.425781 548.523438 335.160156 550.257812 C 336.84375 551.941406 338.410156 551.84375 337.269531 550.125 C 335.703125 547.765625 332.53125 546.667969 329.667969 547.496094 M 538.175781 547.761719 C 537.59375 549.222656 532.34375 562.828125 531.179688 565.894531 L 530.070312 568.820312 L 531.082031 568.671875 C 531.832031 568.5625 532.34375 567.863281 533.0625 565.976562 L 534.03125 563.429688 L 537.535156 563.296875 L 541.042969 563.160156 L 542.085938 565.960938 L 543.132812 568.757812 L 545.191406 568.757812 C 546.945312 568.757812 547.210938 568.636719 546.984375 567.945312 C 546.839844 567.5 544.875 562.585938 542.617188 557.023438 C 539.660156 549.734375 538.421875 547.148438 538.175781 547.761719 M 634.59375 547.648438 C 629.792969 548.9375 626.734375 553.078125 626.734375 558.292969 C 626.734375 566.265625 634.113281 571.476562 640.980469 568.355469 C 642.996094 567.441406 646.027344 564.335938 645.59375 563.632812 C 645.089844 562.824219 644.222656 563.199219 643.449219 564.558594 C 642.433594 566.34375 640.207031 567.445312 637.613281 567.445312 C 632.730469 567.445312 629.683594 561.988281 631.011719 555.605469 C 632.34375 549.183594 639.011719 546.703125 642.808594 551.214844 C 643.8125 552.40625 644.125 552.546875 644.710938 552.058594 C 645.328125 551.546875 645.261719 551.316406 644.171875 550.179688 C 641.738281 547.640625 638.152344 546.691406 634.59375 547.648438 M 762.789062 547.410156 C 754.273438 549.542969 751.398438 560.488281 757.765625 566.53125 C 761.71875 570.28125 768.570312 570.03125 771.953125 566.007812 C 773.300781 564.40625 773.46875 563.875 772.757812 563.4375 C 772.507812 563.285156 771.398438 564.105469 770.289062 565.261719 C 768.394531 567.242188 768.125 567.367188 765.816406 567.367188 C 761.316406 567.367188 758.914062 564.84375 758.5 559.679688 C 758.191406 555.835938 759.042969 552.847656 761.007812 550.886719 C 763.71875 548.171875 767.46875 548.226562 770.265625 551.023438 C 771.363281 552.121094 772.050781 552.5 772.363281 552.1875 C 773.628906 550.921875 769.515625 547.75 766.03125 547.300781 C 765.011719 547.171875 763.550781 547.21875 762.789062 547.410156 M 456.796875 547.789062 C 455.539062 548.078125 455.496094 549.074219 456.683594 550.507812 C 457.765625 551.816406 457.8125 551.828125 458.492188 550.953125 C 459.851562 549.199219 458.84375 547.320312 456.796875 547.789062 M 73.378906 558.335938 L 73.378906 568.757812 L 77.550781 568.757812 L 77.550781 559.957031 L 80.445312 559.957031 C 84.039062 559.957031 86.285156 558.910156 87.414062 556.714844 C 88.71875 554.183594 88.214844 551.78125 85.933594 549.652344 L 84.070312 547.914062 L 73.378906 547.914062 Z M 102.558594 558.335938 L 102.558594 568.757812 L 108.582031 568.757812 C 114.292969 568.757812 114.601562 568.707031 114.601562 567.832031 C 114.601562 566.972656 114.292969 566.902344 110.433594 566.902344 L 106.265625 566.902344 L 106.265625 558.566406 L 110.203125 558.566406 C 113.390625 558.566406 114.136719 558.4375 114.136719 557.871094 C 114.136719 557.308594 113.390625 557.175781 110.203125 557.175781 L 106.265625 557.175781 L 106.265625 549.304688 L 110.433594 549.304688 C 113.828125 549.304688 114.601562 549.175781 114.601562 548.609375 C 114.601562 548.027344 113.625 547.914062 108.582031 547.914062 L 102.558594 547.914062 Z M 161.84375 558.335938 L 161.84375 568.757812 L 165.546875 568.757812 L 165.546875 547.914062 L 161.84375 547.914062 Z M 208.160156 558.335938 L 208.160156 568.757812 L 214.179688 568.757812 C 219.890625 568.757812 220.199219 568.707031 220.199219 567.832031 C 220.199219 566.976562 219.890625 566.902344 216.265625 566.902344 L 212.328125 566.902344 L 212.328125 547.914062 L 208.160156 547.914062 Z M 233.167969 558.335938 L 233.167969 568.757812 L 237.335938 568.757812 L 237.335938 547.914062 L 233.167969 547.914062 Z M 250.769531 548.609375 C 250.769531 549.125 251.308594 549.304688 252.851562 549.304688 L 254.9375 549.304688 L 254.9375 568.757812 L 258.644531 568.757812 L 258.644531 549.304688 L 260.726562 549.304688 C 262.269531 549.304688 262.8125 549.125 262.8125 548.609375 C 262.8125 548.027344 261.832031 547.914062 256.789062 547.914062 C 251.746094 547.914062 250.769531 548.027344 250.769531 548.609375 M 278.792969 553.261719 L 282.265625 558.605469 L 282.265625 568.757812 L 286.433594 568.757812 L 286.433594 557.863281 L 288.902344 554.164062 C 290.257812 552.128906 291.742188 549.890625 292.195312 549.1875 L 293.023438 547.914062 L 291.816406 547.914062 C 290.8125 547.914062 290.160156 548.585938 287.992188 551.839844 C 286.558594 554 285.238281 555.675781 285.0625 555.570312 C 284.886719 555.460938 283.714844 553.699219 282.460938 551.65625 L 280.179688 547.941406 L 277.75 547.929688 L 275.320312 547.914062 Z M 353.125 558.335938 L 353.125 568.757812 L 357.261719 568.757812 L 357.394531 563.875 L 357.527344 558.996094 L 360.535156 563.871094 L 363.546875 568.746094 L 365.746094 568.75 C 366.957031 568.753906 367.949219 568.660156 367.949219 568.542969 C 367.949219 568.421875 366.835938 566.597656 365.476562 564.488281 C 364.238281 562.570312 363.007812 560.644531 361.785156 558.714844 L 360.566406 556.78125 L 363.792969 552.558594 C 365.570312 550.238281 367.019531 548.242188 367.019531 548.125 C 367.019531 548.007812 366.550781 547.914062 365.976562 547.914062 C 365.195312 547.914062 364.007812 549.136719 361.230469 552.796875 L 357.527344 557.679688 L 357.261719 547.914062 L 353.125 547.914062 Z M 380.914062 558.335938 L 380.914062 568.757812 L 385.085938 568.757812 L 385.085938 547.914062 L 380.914062 547.914062 Z M 400.367188 558.335938 C 400.367188 568.449219 400.394531 568.757812 401.292969 568.757812 C 402.1875 568.757812 402.222656 568.449219 402.222656 560.558594 L 402.222656 552.359375 L 408.277344 560.558594 C 412.472656 566.238281 414.609375 568.757812 415.226562 568.757812 C 416.078125 568.757812 416.117188 568.308594 416.117188 558.335938 C 416.117188 548.222656 416.089844 547.914062 415.1875 547.914062 C 414.304688 547.914062 414.261719 548.222656 414.261719 554.917969 L 414.261719 561.921875 L 409.132812 554.917969 C 404.03125 547.949219 403.996094 547.914062 402.1875 547.914062 L 400.367188 547.914062 Z M 501.335938 558.335938 L 501.335938 568.757812 L 505.503906 568.757812 L 505.503906 558.566406 L 513.378906 558.566406 L 513.378906 568.757812 L 517.546875 568.757812 L 517.546875 547.914062 L 513.378906 547.914062 L 513.378906 557.175781 L 505.503906 557.175781 L 505.503906 547.914062 L 501.335938 547.914062 Z M 560.15625 558.335938 L 560.15625 568.757812 L 563.863281 568.757812 L 563.863281 547.914062 L 560.15625 547.914062 Z M 579.144531 558.296875 L 579.144531 568.757812 L 583.316406 568.757812 L 583.316406 549.304688 L 585.417969 549.304688 C 588.308594 549.304688 589.800781 550.769531 589.800781 553.601562 C 589.800781 556.054688 588.472656 557.539062 585.910156 557.953125 C 584.972656 558.105469 584.269531 558.359375 584.347656 558.515625 C 584.425781 558.671875 585.628906 561.039062 587.019531 563.777344 L 589.546875 568.757812 L 591.773438 568.757812 C 594.332031 568.757812 594.4375 569.382812 590.828125 562.988281 C 589.683594 560.960938 588.929688 559.242188 589.15625 559.167969 C 590.917969 558.578125 592.898438 557.214844 593.402344 556.25 C 594.402344 554.332031 593.832031 551.269531 592.15625 549.59375 C 590.710938 548.148438 590.703125 548.144531 584.929688 547.992188 L 579.144531 547.839844 Z M 659.734375 558.335938 L 659.734375 568.757812 L 666.023438 568.757812 C 671.757812 568.757812 672.292969 568.6875 672.152344 567.945312 C 672.023438 567.261719 671.375 567.113281 667.953125 567 L 663.902344 566.867188 L 663.902344 547.914062 L 659.734375 547.914062 Z M 685.207031 558.335938 L 685.207031 568.757812 L 688.914062 568.757812 L 688.914062 547.914062 L 685.207031 547.914062 Z M 704.199219 558.335938 C 704.199219 568.40625 704.230469 568.757812 705.113281 568.757812 C 705.988281 568.757812 706.035156 568.375 706.15625 560.574219 L 706.28125 552.394531 L 712.28125 560.574219 C 716.199219 565.914062 718.570312 568.757812 719.113281 568.757812 C 719.890625 568.757812 719.945312 568.058594 719.945312 558.335938 C 719.945312 548.269531 719.914062 547.914062 719.03125 547.914062 C 718.167969 547.914062 718.109375 548.296875 717.988281 554.648438 L 717.863281 561.382812 L 708.136719 547.960938 L 704.199219 547.914062 Z M 735.691406 558.335938 L 735.691406 568.757812 L 739.398438 568.757812 L 739.398438 547.914062 L 735.691406 547.914062 Z M 77.550781 553.933594 L 77.550781 558.566406 L 79.148438 558.566406 C 82.679688 558.566406 84.378906 556.53125 83.890625 552.890625 C 83.554688 550.375 82.265625 549.304688 79.582031 549.304688 L 77.550781 549.304688 Z M 184.414062 557.726562 C 183.710938 559.589844 183.136719 561.269531 183.140625 561.460938 C 183.144531 561.652344 184.394531 561.808594 185.921875 561.808594 L 188.691406 561.808594 L 187.824219 559.609375 C 187.332031 558.363281 186.832031 557.117188 186.324219 555.875 L 185.695312 554.34375 Z M 537.265625 555.265625 C 537.109375 555.523438 536.464844 557.101562 535.835938 558.769531 L 534.691406 561.808594 L 537.464844 561.808594 C 538.992188 561.808594 540.242188 561.636719 540.242188 561.425781 C 540.242188 561.039062 537.953125 555.21875 537.695312 554.945312 C 537.617188 554.867188 537.425781 555.011719 537.265625 555.265625 M 455.925781 556.863281 C 453.625 558.617188 452.945312 562.125 454.421875 564.625 C 454.855469 565.359375 455.941406 566.308594 456.835938 566.734375 C 458.269531 567.414062 458.671875 567.429688 460.292969 566.855469 C 461.304688 566.5 462.195312 566 462.273438 565.746094 C 462.355469 565.492188 461.117188 563.265625 459.53125 560.800781 C 457.085938 557.003906 456.53125 556.402344 455.925781 556.863281 " fill-opacity="1" fill-rule="evenodd"/></svg>